<svg width="40" height="41" viewBox="0 0 40 41" fill="none" xmlns="http://www.w3.org/2000/svg">
<path d="M24.715 11.121C23.485 11.0646 23.115 11.0547 20 11.0547C16.885 11.0547 16.5167 11.0663 15.2867 11.121C12.1217 11.2653 10.6483 12.7561 10.5033 15.8802C10.4483 17.104 10.435 17.4705 10.435 20.5698C10.435 23.6691 10.4483 24.0356 10.5033 25.261C10.6483 28.3769 12.115 29.876 15.2867 30.0203C16.515 30.075 16.885 30.0882 20 30.0882C23.1167 30.0882 23.485 30.0766 24.715 30.0203C27.88 29.8776 29.3517 28.3819 29.4983 25.261C29.5533 24.0372 29.565 23.6691 29.565 20.5698C29.565 17.4705 29.5533 17.104 29.4983 15.8802C29.3517 12.7577 27.8767 11.2653 24.715 11.121V11.121ZM20 26.5313C16.6917 26.5313 14.0083 23.8631 14.0083 20.5698C14.0083 17.2782 16.6917 14.61 20 14.61C23.3083 14.61 25.9917 17.2782 25.9917 20.5698C25.9917 23.8615 23.3083 26.5313 20 26.5313ZM26.2283 15.7675C25.455 15.7675 24.8283 15.144 24.8283 14.3745C24.8283 13.6051 25.455 12.9816 26.2283 12.9816C27.0017 12.9816 27.6283 13.6051 27.6283 14.3745C27.6283 15.1423 27.0017 15.7675 26.2283 15.7675V15.7675ZM23.8883 20.5698C23.8883 22.7073 22.1467 24.4385 20 24.4385C17.8533 24.4385 16.1117 22.7073 16.1117 20.5698C16.1117 18.4323 17.8533 16.7011 20 16.7011C22.1467 16.7011 23.8883 18.4323 23.8883 20.5698ZM20 0.670654C8.955 0.670654 0 9.5805 0 20.5698C0 31.5591 8.955 40.469 20 40.469C31.045 40.469 40 31.5591 40 20.5698C40 9.5805 31.045 0.670654 20 0.670654ZM31.5967 25.3556C31.405 29.5758 29.0433 31.914 24.8117 32.108C23.5667 32.1644 23.1683 32.1777 20 32.1777C16.8317 32.1777 16.435 32.1644 15.19 32.108C10.95 31.914 8.59833 29.5725 8.40333 25.3556C8.34667 24.1185 8.33333 23.7222 8.33333 20.5698C8.33333 17.4175 8.34667 17.0228 8.40333 15.7841C8.59833 11.5654 10.9517 9.22564 15.19 9.03328C16.435 8.97524 16.8317 8.96197 20 8.96197C23.1683 8.96197 23.5667 8.97524 24.8117 9.03328C29.0533 9.22729 31.4067 11.5737 31.5967 15.7841C31.6533 17.0228 31.6667 17.4175 31.6667 20.5698C31.6667 23.7222 31.6533 24.1185 31.5967 25.3556Z" fill="white"/>
</svg>
