<svg width="38" height="40" viewBox="0 0 38 40" fill="none" xmlns="http://www.w3.org/2000/svg">
<path d="M18.8 0C8.4177 0 0 8.7759 0 19.6C0 30.4241 8.4177 39.2 18.8 39.2C29.1823 39.2 37.6 30.4241 37.6 19.6C37.6 8.7759 29.1823 0 18.8 0ZM28.3034 15.7535C28.5901 22.3522 23.8697 29.7087 15.5131 29.7087C12.972 29.7087 10.6079 28.9312 8.61667 27.6001C11.0043 27.8941 13.3872 27.2015 15.2781 25.658C13.3104 25.6205 11.6482 24.2632 11.0732 22.3995C11.7798 22.54 12.4754 22.4992 13.1067 22.3195C10.9432 21.8654 9.44857 19.8336 9.49713 17.6596C10.105 18.0108 10.7975 18.2215 11.5354 18.246C9.5316 16.8495 8.96447 14.0908 10.1426 11.9821C12.361 14.8209 15.6776 16.6878 19.4173 16.8838C18.7608 13.9503 20.8962 11.123 23.8024 11.123C25.0949 11.123 26.2652 11.693 27.0861 12.6044C28.1107 12.3954 29.0758 12.0034 29.9437 11.466C29.6069 12.562 28.894 13.4799 27.965 14.0614C28.8752 13.947 29.7432 13.6955 30.5484 13.3215C29.9468 14.2655 29.1854 15.092 28.3034 15.7535Z" fill="white"/>
</svg>
