<svg width="40" height="37" viewBox="0 0 40 37" fill="none" xmlns="http://www.w3.org/2000/svg">
<path d="M20.3016 0.61145C9.56573 0.61145 0.8526 8.70101 0.8526 18.6685C0.8526 28.636 9.56573 36.7256 20.3016 36.7256C31.0374 36.7256 39.7505 28.636 39.7505 18.6685C39.7505 8.70101 31.0374 0.61145 20.3016 0.61145ZM20.3016 6.02857C23.5301 6.02857 26.1362 8.44822 26.1362 11.4457C26.1362 14.4432 23.5301 16.8628 20.3016 16.8628C17.073 16.8628 14.4669 14.4432 14.4669 11.4457C14.4669 8.44822 17.073 6.02857 20.3016 6.02857ZM20.3016 31.6696C15.4393 31.6696 11.1411 29.3583 8.63218 25.8552C8.69053 22.2619 16.4118 20.2936 20.3016 20.2936C24.1719 20.2936 31.9126 22.2619 31.9709 25.8552C29.462 29.3583 25.1638 31.6696 20.3016 31.6696Z" fill="#F1BC00"/>
</svg>
